<?xml version="1.0" encoding="UTF-8" standalone="no"?>
<!-- Created with Inkscape (http://www.inkscape.org/) -->

<svg
   width="136.42578mm"
   height="19.84375mm"
   viewBox="0 0 136.42578 19.84375"
   version="1.1"
   id="svg5"
   sodipodi:docname="as-true-as-it-gets.svg"
   inkscape:version="1.2.2 (b0a8486541, 2022-12-01)"
   xmlns:inkscape="http://www.inkscape.org/namespaces/inkscape"
   xmlns:sodipodi="http://sodipodi.sourceforge.net/DTD/sodipodi-0.dtd"
   xmlns="http://www.w3.org/2000/svg"
   xmlns:svg="http://www.w3.org/2000/svg">
  <sodipodi:namedview
     id="namedview7"
     pagecolor="#ffffff"
     bordercolor="#000000"
     borderopacity="0.25"
     inkscape:showpageshadow="2"
     inkscape:pageopacity="0.0"
     inkscape:pagecheckerboard="0"
     inkscape:deskcolor="#d1d1d1"
     inkscape:document-units="mm"
     showgrid="false"
     inkscape:zoom="0.90715372"
     inkscape:cx="297.63423"
     inkscape:cy="-129.52601"
     inkscape:window-width="1920"
     inkscape:window-height="961"
     inkscape:window-x="0"
     inkscape:window-y="0"
     inkscape:window-maximized="1"
     inkscape:current-layer="text236" />
  <defs
     id="defs2" />
  <g
     inkscape:label="Layer 1"
     inkscape:groupmode="layer"
     id="layer1"
     transform="translate(-36.659036,-76.271063)">
    <g
       aria-label="The Truth™"
       id="text236"
       style="font-size:25.4px;font-family:'BabelStone Moon Runes';-inkscape-font-specification:'BabelStone Moon Runes';stroke-width:0.264999;paint-order:fill markers stroke">
      <path
         d="m 36.659035,78.751534 h 9.921875 v 2.480468 H 42.860206 V 96.114815 H 40.379738 V 81.232002 h -3.720703 z"
         style="stroke-width:0.265"
         id="path1018" />
      <path
         d="m 49.061378,78.751534 h 2.480469 v 4.960937 h 4.960938 q 2.480468,0 2.480468,2.480469 v 9.921875 H 56.502785 V 86.19294 h -4.960938 v 9.921875 h -2.480469 z"
         style="stroke-width:0.265"
         id="path1020" />
      <path
         d="m 61.463722,86.19294 q 0,-2.480469 2.480469,-2.480469 h 4.960937 q 2.480469,0 2.480469,2.480469 v 2.480469 q 0,2.480468 -2.480469,2.480468 h -4.960937 v 2.480469 h 7.441406 v 2.480469 h -7.441406 q -2.480469,0 -2.480469,-2.480469 z m 7.441406,0 h -4.960937 v 2.480469 h 4.960937 z"
         style="stroke-width:0.265"
         id="path1022" />
      <path
         d="m 88.748878,78.751534 h 9.921875 v 2.480468 H 94.95005 V 96.114815 H 92.469582 V 81.232002 h -3.720704 z"
         style="stroke-width:0.265"
         id="path1024" />
      <path
         d="m 101.15122,86.19294 q 0,-2.480469 2.48047,-2.480469 h 4.96094 v 2.480469 h -4.96094 v 9.921875 h -2.48047 z"
         style="stroke-width:0.265"
         id="path1026" />
      <path
         d="m 118.5145,83.712471 h 2.48047 v 9.921875 q 0,2.480469 -2.48047,2.480469 h -4.96093 q -2.48047,0 -2.48047,-2.480469 v -9.921875 h 2.48047 v 9.921875 h 4.96093 z"
         style="stroke-width:0.265"
         id="path1028" />
      <path
         d="m 128.43638,96.114815 q -2.48047,0 -2.48047,-2.480469 V 86.19294 h -2.48047 v -2.480469 h 2.48047 v -4.960937 h 2.48047 v 4.960937 h 2.48047 v 2.480469 h -2.48047 v 7.441406 h 4.96094 v 2.480469 z"
         style="stroke-width:0.265"
         id="path1030" />
      <path
         d="m 135.87778,78.751534 h 2.48047 v 4.960937 h 4.96094 q 2.48047,0 2.48047,2.480469 v 9.921875 h -2.48047 V 86.19294 h -4.96094 v 9.921875 h -2.48047 z"
         style="stroke-width:0.265"
         id="path1032" />
      <path
         d="m 165.64341,77.511299 h -2.48047 v 7.441407 h -2.48047 v -6.201172 q 0,-2.480469 2.48047,-2.480469 h 7.44141 q 2.48047,0 2.48047,2.480469 v 6.201172 h -2.48047 v -7.441407 h -2.48047 v 7.441407 h -2.48047 z M 150.7606,76.271065 h 7.4414 v 1.240234 h -2.48047 v 7.441407 h -2.48046 v -7.441407 h -2.48047 z"
         style="font-family:'BabelStone Modern';-inkscape-font-specification:'BabelStone Modern'"
         id="path1034" />
    </g>
  </g>
</svg>
